<svg width="21" height="19" viewBox="0 0 21 19" fill="none" xmlns="http://www.w3.org/2000/svg">
<path d="M10.7319 6.53011C8.89563 6.53011 7.39712 7.90712 7.39712 9.59448C7.39712 11.2818 8.89563 12.6589 10.7319 12.6589C12.5681 12.6589 14.0666 11.2818 14.0666 9.59448C14.0666 7.90712 12.5681 6.53011 10.7319 6.53011ZM20.7336 9.59448C20.7336 8.32551 20.7461 7.06804 20.6686 5.80137C20.591 4.3301 20.2258 3.02435 19.055 1.94849C17.8817 0.870326 16.4632 0.536992 14.8622 0.465727C13.4812 0.394463 12.1128 0.405957 10.7344 0.405957C9.35344 0.405957 7.98502 0.394463 6.60658 0.465727C5.0055 0.536992 3.58454 0.872625 2.41375 1.94849C1.24046 3.02665 0.877715 4.3301 0.800163 5.80137C0.722611 7.07034 0.735119 8.32781 0.735119 9.59448C0.735119 10.8612 0.722611 12.1209 0.800163 13.3876C0.877715 14.8589 1.24296 16.1646 2.41375 17.2405C3.58705 18.3186 5.0055 18.652 6.60658 18.7232C7.98752 18.7945 9.35594 18.783 10.7344 18.783C12.1153 18.783 13.4837 18.7945 14.8622 18.7232C16.4632 18.652 17.8842 18.3163 19.055 17.2405C20.2283 16.1623 20.591 14.8589 20.6686 13.3876C20.7486 12.1209 20.7336 10.8635 20.7336 9.59448ZM10.7319 14.3094C7.89245 14.3094 5.6009 12.2037 5.6009 9.59448C5.6009 6.98528 7.89245 4.87953 10.7319 4.87953C13.5713 4.87953 15.8628 6.98528 15.8628 9.59448C15.8628 12.2037 13.5713 14.3094 10.7319 14.3094ZM16.073 5.78758C15.41 5.78758 14.8747 5.29562 14.8747 4.68643C14.8747 4.07723 15.41 3.58527 16.073 3.58527C16.7359 3.58527 17.2713 4.07723 17.2713 4.68643C17.2715 4.83108 17.2406 4.97435 17.1805 5.10803C17.1203 5.24171 17.0321 5.36317 16.9207 5.46546C16.8094 5.56775 16.6773 5.64885 16.5318 5.70413C16.3863 5.7594 16.2304 5.78776 16.073 5.78758Z" fill="#272D4E"/>
</svg>
