<svg width="25" height="19" viewBox="0 0 25 19" fill="none" xmlns="http://www.w3.org/2000/svg">
<path d="M24.6183 2.5884C23.713 2.94727 22.7278 3.20555 21.713 3.30614C22.7666 2.73096 23.5556 1.82227 23.9319 0.750559C22.9433 1.29101 21.8602 1.66998 20.7308 1.87066C20.2587 1.40693 19.6878 1.03749 19.0535 0.785379C18.4193 0.533268 17.7354 0.403882 17.0444 0.405285C14.2485 0.405285 12 2.48781 12 5.04339C12 5.40225 12.0473 5.76112 12.1243 6.1064C7.93787 5.90521 4.20414 4.06737 1.72189 1.25352C1.2696 1.96341 1.03258 2.77171 1.0355 3.59432C1.0355 5.20379 1.92603 6.62295 3.28402 7.45759C2.48374 7.42863 1.7022 7.2265 1.00296 6.86763V6.92473C1.00296 9.17853 2.73669 11.0463 5.04734 11.4758C4.61349 11.5794 4.16718 11.6324 3.71893 11.6335C3.39053 11.6335 3.07988 11.6036 2.76627 11.5628C3.40532 13.4007 5.26627 14.7355 7.48224 14.779C5.74852 16.0269 3.57692 16.761 1.21893 16.761C0.795858 16.761 0.405325 16.7474 0 16.7039C2.23669 18.0225 4.89053 18.7837 7.74852 18.7837C17.0266 18.7837 22.1035 11.7205 22.1035 5.58984C22.1035 5.38866 22.1035 5.18748 22.0887 4.98629C23.071 4.32565 23.9319 3.50732 24.6183 2.5884Z" fill="#272D4E"/>
</svg>
