<svg width="21" height="19" viewBox="0 0 21 19" fill="none" xmlns="http://www.w3.org/2000/svg">
<path fill-rule="evenodd" clip-rule="evenodd" d="M2.63925 0.405273C12.5911 0.405273 20.6905 7.82629 20.7327 16.9621V16.9626H20.7343V17.9292H20.7224C20.6961 18.1436 20.5917 18.3435 20.4262 18.4965C20.2608 18.6495 20.0439 18.7467 19.8108 18.7722V18.7837H17.9405V18.7817C17.6875 18.7769 17.445 18.6877 17.2582 18.5308C17.0714 18.374 16.953 18.1601 16.925 17.929H16.9132V16.9623H16.9238C16.8816 9.75591 10.4909 3.9051 2.63895 3.9051C2.63149 3.9051 2.62404 3.9046 2.61659 3.9041C2.61037 3.90369 2.60416 3.90327 2.59795 3.90315V3.91654H1.54604V3.90566C1.31275 3.8815 1.09519 3.78561 0.928667 3.63355C0.76214 3.48149 0.65642 3.28217 0.628661 3.06795H0.616211V1.34929H0.618337C0.62363 1.11681 0.720661 0.894007 0.891372 0.722352C1.06208 0.550698 1.29485 0.441883 1.54635 0.416156V0.405273H2.59826V0.407227C2.60443 0.407101 2.61055 0.406689 2.61669 0.406276C2.62413 0.405776 2.6316 0.405273 2.63925 0.405273ZM2.6167 7.02737H2.61669C2.61055 7.02778 2.60443 7.02819 2.59826 7.02832V7.02637H1.54635V7.03725C1.29485 7.06298 1.06208 7.1718 0.891372 7.34347C0.720661 7.51514 0.62363 7.73796 0.618337 7.97047H0.616211V9.68928H0.628661C0.656472 9.90349 0.762209 10.1028 0.928726 10.2549C1.09524 10.4069 1.31278 10.5028 1.54604 10.5271V10.5379H2.59795V10.5245C2.60416 10.5247 2.61037 10.5251 2.61658 10.5255C2.62404 10.526 2.63149 10.5265 2.63895 10.5265C6.5174 10.5265 9.67586 13.4068 9.71777 16.9622H9.70774V17.9289H9.71959C9.74758 18.16 9.866 18.3739 10.0528 18.5308C10.2396 18.6877 10.4821 18.7769 10.7351 18.7817V18.7837H12.605V18.7722C12.8381 18.7467 13.055 18.6495 13.2205 18.4965C13.386 18.3435 13.4903 18.1435 13.5167 17.9292H13.5285V16.9625H13.5267C13.4851 11.4767 8.61757 7.02637 2.63925 7.02637C2.6316 7.02637 2.62413 7.02687 2.6167 7.02737ZM3.46569 13.7661C3.11545 13.7661 2.76865 13.8295 2.44509 13.9527C2.12153 14.0759 1.82755 14.2564 1.57996 14.4841C1.33236 14.7117 1.13599 14.9819 1.00207 15.2792C0.868156 15.5766 0.79931 15.8953 0.799469 16.2171C0.799469 16.5389 0.868449 16.8575 1.00247 17.1548C1.13649 17.4521 1.33293 17.7222 1.58056 17.9498C1.8282 18.1773 2.12219 18.3578 2.44574 18.481C2.7693 18.6041 3.11608 18.6675 3.46629 18.6675C3.81651 18.6675 4.16329 18.6041 4.48684 18.481C4.8104 18.3578 5.10438 18.1773 5.35202 17.9498C5.59966 17.7222 5.7961 17.4521 5.93012 17.1548C6.06414 16.8575 6.13312 16.5389 6.13312 16.2171C6.13328 15.8952 6.06439 15.5764 5.9304 15.279C5.7964 14.9815 5.59993 14.7113 5.3522 14.4837C5.10448 14.256 4.81036 14.0755 4.48666 13.9524C4.16296 13.8293 3.81602 13.766 3.46569 13.7661Z" fill="#272D4E"/>
</svg>
